<?xml version="1.0" standalone="no"?>
<!DOCTYPE svg PUBLIC "-//W3C//DTD SVG 20010904//EN"
 "http://www.w3.org/TR/2001/REC-SVG-20010904/DTD/svg10.dtd">
<svg version="1.0" xmlns="http://www.w3.org/2000/svg"
 width="225.000000pt" height="225.000000pt" viewBox="0 0 225.000000 225.000000"
 preserveAspectRatio="xMidYMid meet">

<g transform="translate(0.000000,225.000000) scale(0.100000,-0.100000)"
fill="#000000" stroke="none">
<path d="M790 1475 c-158 -24 -304 -67 -414 -122 -37 -19 -75 -27 -149 -34
-62 -5 -104 -13 -109 -21 -15 -25 -28 -83 -28 -132 0 -31 -6 -56 -16 -67 -39
-44 -21 -151 31 -185 22 -14 113 -36 207 -49 l48 -6 -6 45 c-5 34 -2 55 15 90
54 110 202 123 273 24 18 -26 23 -46 23 -95 l0 -63 482 0 482 0 -1 53 c-2 81
31 131 106 162 48 20 98 13 144 -21 43 -33 62 -73 62 -131 l0 -48 102 3 c57 2
117 7 133 11 l30 7 3 87 c3 103 -9 133 -71 175 -83 56 -184 89 -361 117 -82
13 -117 25 -215 74 -146 74 -267 117 -366 130 -100 14 -298 12 -405 -4z m445
-40 c89 -19 220 -70 335 -132 72 -39 103 -48 200 -65 194 -32 305 -71 368
-131 31 -30 32 -34 32 -109 l0 -78 -72 0 c-40 0 -82 -3 -94 -6 -19 -5 -22 -1
-26 40 -11 92 -82 157 -178 164 -111 8 -197 -61 -208 -167 l-4 -48 -106 -7
c-58 -3 -255 -6 -439 -6 l-333 0 0 35 c0 107 -90 195 -200 195 -103 0 -167
-56 -194 -171 l-11 -46 -84 17 c-67 13 -89 22 -108 44 -27 32 -30 81 -7 114 9
13 18 49 20 80 2 31 8 71 12 87 8 30 9 30 98 37 71 6 107 16 179 47 110 49
242 88 355 106 121 19 373 19 465 0z"/>
<path d="M874 1429 c-94 -9 -242 -42 -284 -64 -43 -22 -63 -56 -51 -88 8 -22
18 -26 63 -31 96 -11 321 -26 381 -26 51 0 58 2 53 18 -2 9 -7 44 -11 77 -3
33 -9 75 -12 93 -6 36 1 35 -139 21z m111 -94 c4 -36 5 -69 1 -72 -9 -10 -399
17 -410 27 -27 26 74 68 214 89 41 6 86 13 100 15 14 2 39 4 57 5 l31 1 7 -65z"/>
<path d="M1034 1423 c3 -10 17 -60 30 -112 14 -51 27 -95 28 -96 4 -4 402 -25
459 -25 34 0 49 4 53 16 9 24 -11 43 -37 36 -19 -5 -20 -3 -10 10 11 12 2 21
-60 56 -121 69 -257 111 -410 127 -53 5 -58 4 -53 -12z m211 -54 c76 -18 237
-89 280 -123 19 -14 17 -15 -35 -15 -74 0 -362 17 -367 22 -8 8 -41 136 -36
140 7 7 64 -1 158 -24z"/>
<path d="M443 1054 c-96 -47 -101 -198 -10 -255 49 -31 137 -23 177 16 37 35
55 90 46 138 -18 94 -125 144 -213 101z m133 -42 c73 -58 53 -166 -35 -193
-110 -33 -188 112 -100 185 37 31 102 35 135 8z"/>
<path d="M1712 1050 c-66 -41 -90 -124 -56 -196 47 -99 211 -99 258 0 48 101
-21 216 -129 216 -22 0 -54 -9 -73 -20z m141 -40 c38 -30 52 -80 33 -124 -16
-38 -67 -76 -102 -76 -62 0 -120 82 -103 145 20 70 114 100 172 55z"/>
</g>
</svg>
