<?xml version="1.0" standalone="no"?>
<!DOCTYPE svg PUBLIC "-//W3C//DTD SVG 20010904//EN"
 "http://www.w3.org/TR/2001/REC-SVG-20010904/DTD/svg10.dtd">
<svg version="1.0" xmlns="http://www.w3.org/2000/svg"
 width="256.000000pt" height="256.000000pt" viewBox="0 0 256.000000 256.000000"
 preserveAspectRatio="xMidYMid meet">
<metadata>
Created by potrace 1.16, written by Peter Selinger 2001-2019
</metadata>
<g transform="translate(0.000000,256.000000) scale(0.100000,-0.100000)"
fill="#000000" stroke="none">
<path d="M0 1280 l0 -1280 140 0 c77 0 140 3 140 7 0 4 -26 33 -57 65 l-56 57
-59 -54 c-57 -53 -78 -65 -78 -46 0 6 25 36 55 69 l55 59 -65 62 c-36 35 -65
69 -65 76 0 8 24 36 53 64 43 41 53 47 58 33 5 -12 -6 -30 -32 -57 l-39 -41
40 -39 c21 -21 37 -42 34 -46 -7 -12 67 -90 89 -93 9 -1 34 -19 55 -39 l38
-37 34 35 c21 22 43 35 59 35 24 0 23 -3 -22 -48 -26 -26 -47 -51 -47 -55 0
-4 52 -7 115 -7 63 0 115 4 115 8 0 4 -18 26 -40 47 -22 21 -40 43 -40 47 0
20 39 5 70 -27 l34 -35 36 35 c21 20 46 35 60 35 22 0 21 -4 -23 -48 -26 -26
-47 -51 -47 -55 0 -9 224 -9 234 0 3 4 -15 28 -41 55 -37 38 -43 48 -28 48 11
0 36 -17 57 -37 l38 -37 38 37 c21 20 46 37 57 37 15 0 9 -10 -28 -48 -26 -27
-44 -51 -41 -55 10 -9 234 -9 234 0 0 4 -21 29 -47 55 -45 45 -46 48 -22 48
16 0 38 -13 59 -35 l34 -35 36 35 c33 32 70 46 70 27 0 -4 -18 -26 -40 -47
-22 -21 -40 -43 -40 -47 0 -4 52 -8 115 -8 63 0 115 4 115 8 0 4 -18 26 -40
47 -22 21 -40 43 -40 47 0 20 39 5 70 -27 l34 -35 36 35 c33 32 70 46 70 27 0
-4 -18 -26 -40 -47 -22 -21 -40 -43 -40 -47 0 -4 52 -8 115 -8 63 0 115 4 115
8 0 4 -18 26 -40 47 -22 21 -40 43 -40 47 0 20 39 5 70 -27 l34 -35 36 35 c21
20 46 35 60 35 22 0 21 -4 -23 -48 -26 -26 -47 -51 -47 -55 0 -4 54 -7 120 -7
66 0 120 2 120 5 0 2 -20 23 -45 46 -25 23 -45 45 -45 50 0 21 37 6 72 -28
l38 -37 38 37 c21 20 46 37 57 37 15 0 9 -10 -28 -48 -26 -26 -47 -51 -47 -55
0 -4 54 -7 120 -7 66 0 120 3 120 7 0 4 -21 29 -47 55 -39 39 -44 48 -27 48
11 0 35 -16 54 -35 19 -19 38 -34 42 -33 5 2 64 59 133 128 l125 124 -48 51
c-32 33 -47 56 -44 69 3 15 13 10 58 -35 l54 -53 0 114 0 114 -54 -53 c-39
-38 -55 -49 -59 -38 -3 9 14 33 44 63 l49 48 -47 48 c-39 40 -64 88 -44 88 3
0 29 -23 58 -52 l53 -52 0 114 0 114 -54 -53 c-47 -47 -54 -50 -59 -32 -4 15
8 32 44 66 l48 45 -47 45 c-44 41 -45 45 -22 45 14 0 38 -13 57 -32 l33 -32 0
259 0 259 -29 -34 c-26 -31 -30 -33 -37 -17 -5 13 1 27 20 45 l26 26 -49 51
c-36 37 -47 55 -42 69 6 16 14 10 59 -39 l52 -57 0 118 0 118 -54 -53 c-70
-69 -83 -46 -15 24 l49 51 -49 48 c-35 35 -47 53 -43 68 4 17 11 13 58 -33
l54 -53 0 114 0 114 -54 -53 c-47 -47 -54 -50 -59 -32 -4 15 7 32 43 65 l49
46 -50 47 c-38 36 -48 53 -43 66 6 16 14 11 60 -34 l54 -53 0 114 0 114 -54
-53 c-47 -46 -54 -50 -58 -33 -4 15 8 33 41 66 l47 47 -128 126 -128 127 -43
-40 c-27 -26 -49 -39 -61 -36 -15 3 -10 13 35 58 l53 54 -126 0 -126 0 55 -53
c50 -48 54 -55 35 -59 -15 -4 -32 6 -63 38 l-43 44 -46 -45 c-29 -29 -49 -42
-58 -36 -9 5 3 22 42 59 l55 52 -129 0 -129 0 55 -52 c47 -44 53 -53 37 -59
-13 -5 -30 5 -63 37 l-46 44 -43 -44 c-32 -33 -48 -42 -64 -38 -19 5 -15 11
38 59 l58 53 -128 0 -128 0 58 -53 c53 -48 57 -54 38 -59 -16 -4 -32 5 -64 38
l-43 44 -46 -44 c-33 -32 -50 -42 -63 -37 -16 6 -10 15 37 59 l55 52 -127 0
-126 0 54 -55 c43 -44 50 -55 34 -55 -11 0 -38 18 -59 40 l-39 40 -46 -44
c-33 -32 -50 -42 -63 -37 -16 6 -10 15 37 59 l55 52 -129 0 -129 0 55 -52 c47
-45 53 -53 37 -59 -13 -6 -29 4 -60 36 l-43 44 -42 -44 c-32 -32 -48 -42 -61
-36 -16 6 -10 14 37 59 l55 52 -129 0 -129 0 55 -52 c47 -44 53 -53 37 -59
-13 -5 -30 5 -63 37 l-46 44 -43 -44 c-26 -27 -49 -42 -58 -39 -11 4 0 20 38
59 l53 54 -126 0 -126 0 55 -53 c50 -48 54 -55 35 -59 -15 -4 -32 6 -63 38
l-42 43 -72 -67 c-39 -37 -98 -95 -130 -130 l-58 -63 36 -37 c21 -21 37 -46
37 -57 0 -15 -10 -9 -48 28 -27 26 -51 44 -55 41 -4 -4 -7 8 -7 26 0 18 2 31
5 28 3 -3 32 22 64 55 l59 61 -55 60 c-31 33 -51 62 -44 64 6 2 37 -19 69 -46
l57 -50 64 59 64 59 -147 0 -146 0 0 -1280z"/>
<path d="M2357 2498 l63 -62 42 40 c60 57 75 67 82 55 3 -5 -17 -35 -46 -66
l-51 -56 56 -57 57 -57 0 133 0 132 -132 0 -133 0 62 -62z"/>
<path d="M2504 212 l-52 -57 49 -55 c26 -30 49 -58 49 -62 0 -19 -25 -4 -73
41 l-52 50 -63 -61 c-34 -33 -62 -62 -62 -64 0 -2 59 -4 130 -4 l130 0 0 135
c0 74 -1 135 -2 134 -2 0 -26 -26 -54 -57z"/>
</g>
</svg>
